<?xml version="1.0" encoding="UTF-8" standalone="no"?>
<!-- Created with Inkscape (http://www.inkscape.org/) -->

<svg
   version="1.1"
   id="svg1"
   width="2829.3333"
   height="2829.3333"
   viewBox="0 0 2829.3333 2829.3333"
   sodipodi:docname="afro-guy.eps"
   xmlns:inkscape="http://www.inkscape.org/namespaces/inkscape"
   xmlns:sodipodi="http://sodipodi.sourceforge.net/DTD/sodipodi-0.dtd"
   xmlns="http://www.w3.org/2000/svg"
   xmlns:svg="http://www.w3.org/2000/svg">
  <defs
     id="defs1" />
  <sodipodi:namedview
     id="namedview1"
     pagecolor="#ffffff"
     bordercolor="#000000"
     borderopacity="0.25"
     inkscape:showpageshadow="2"
     inkscape:pageopacity="0.0"
     inkscape:pagecheckerboard="0"
     inkscape:deskcolor="#d1d1d1">
    <inkscape:page
       x="0"
       y="0"
       inkscape:label="1"
       id="page1"
       width="2829.3333"
       height="2829.3333"
       margin="0"
       bleed="0" />
  </sodipodi:namedview>
  <g
     id="g1"
     inkscape:groupmode="layer"
     inkscape:label="1">
    <g
       id="group-R5">
      <path
         id="path2"
         d="m 12783.5,9872 c 147.2,153.2 229.8,325 229.8,506.5 0,418.9 -434.3,430.1 -1090.3,386.9 l 1.1,455.7 c 55.6,13.2 110.9,28.8 165.7,48.2 659.1,232.4 1086.1,859.1 1177.9,1601.8 205.3,-99.1 475.9,-97.8 723.4,25.8 387,193.4 570.1,611.6 409,934.1 -111.5,223 -358.4,341.7 -628,329.8 30.1,30 59.2,61.7 86.7,95.7 383.7,473.9 348.4,1157.2 -78.9,1526 -91.4,78.9 -193.6,135.8 -301.1,173.8 l 0.1,1.3 c 0,0 -233.2,48.7 -189.5,510.7 l -0.5,0.3 c 16.8,318.3 -98.9,631.5 -342.9,842.3 -341.1,294.4 -828.5,298.8 -1206.5,47.8 l -0.8,0.4 c 0,0 -3.7,-2.8 -9.2,-6.7 -5.1,-3.5 -10.3,-6.8 -15.4,-10.4 -75.5,-48.8 -316.4,-174.2 -540.5,39.3 l -0.7,-1.1 c -12.2,11.7 -23.6,24 -36.6,35.2 -427.2,368.9 -1084.6,283.8 -1468.27,-190.2 -149.12,-184.2 -234.12,-399.9 -258.28,-616.6 l -0.69,0.5 c -35.14,-262.4 -207.11,-330.6 -267.21,-346.6 l -10.21,-2.6 c -6.87,-1.5 -10.79,-2 -10.79,-2 l 0.45,-0.7 c -256.23,-58.8 -498.1,-215.7 -667.38,-459.8 -347.17,-500.7 -258.22,-1175.8 198.61,-1507.9 76.03,-55.3 157.76,-96.4 242.26,-126.1 l -0.57,-1.1 c 0,0 16.93,-4.9 43.17,-18.1 -319.16,64.5 -632.48,-53.6 -762.22,-313.2 -161.13,-322.5 21.97,-740.7 408.98,-934.1 318.66,-159.2 675.82,-116 882.12,84.2 l 3.11,-11 -4.33,-2203.4 c -652.19,41.6 -1088.34,26.3 -1088.34,-388.2 0,-153.6 59.69,-300.1 167.12,-434.5 C 6226.76,8917.4 5326.87,6434.3 5326.87,6434.3 c 0,0 1547.51,-2852.3 5279.73,-2852.3 3732.2,0 5279.7,2730.9 5279.7,2730.9 0,0 -937.3,2468.2 -3102.8,3559.1"
         style="fill:#b52d8f;fill-opacity:1;fill-rule:nonzero;stroke:none"
         transform="matrix(0.13333333,0,0,-0.13333333,0,2829.3333)" />
      <path
         id="path3"
         d="m 11209.5,11211.3 c -16.2,-60.6 -25.8,-124.1 -25.9,-189.9 -0.3,-107.5 22.9,-209.4 63.9,-301.7 242.6,13.4 470,32.1 675.5,45.7 l 1.1,455.7 c -236.3,-56 -478.2,-57 -714.6,-9.8"
         style="fill:#5b0e39;fill-opacity:1;fill-rule:nonzero;stroke:none"
         transform="matrix(0.13333333,0,0,-0.13333333,0,2829.3333)" />
      <path
         id="path4"
         d="m 11853,13055.5 c 55.3,-59.8 122.5,-125.6 58.3,-210.6 -47.5,-62.9 -105.2,-120.1 -157.1,-179.3 -57.2,-65.3 -114.4,-130.6 -171.6,-195.9 -52.7,-60.1 35.2,-148.7 88.2,-88.2 109.6,125.1 222.6,247.8 329,375.5 92.4,110.8 72.3,245 -21,346 -69,74.7 -138.1,149.4 -207.1,224.1 -60.9,66 -121.9,131.9 -182.8,197.8 -54.6,59.1 -142.6,-29.2 -88.2,-88.1 117.4,-127.1 234.9,-254.2 352.3,-381.3"
         style="fill:#5b0e39;fill-opacity:1;fill-rule:nonzero;stroke:none"
         transform="matrix(0.13333333,0,0,-0.13333333,0,2829.3333)" />
      <path
         id="path5"
         d="m 12177.3,13690.9 c 36.4,13.5 46.4,76.6 22.5,141 -23.9,64.3 -72.8,105.5 -109.1,92 -36.4,-13.5 -46.5,-76.7 -22.5,-141 23.9,-64.3 72.8,-105.5 109.1,-92"
         style="fill:#5b0e39;fill-opacity:1;fill-rule:nonzero;stroke:none"
         transform="matrix(0.13333333,0,0,-0.13333333,0,2829.3333)" />
      <path
         id="path6"
         d="m 10817.1,13665.5 c 36.4,13.6 46.5,76.7 22.6,141 -24,64.3 -72.8,105.5 -109.2,92 -36.3,-13.5 -46.4,-76.6 -22.5,-141 23.9,-64.3 72.8,-105.5 109.1,-92"
         style="fill:#5b0e39;fill-opacity:1;fill-rule:nonzero;stroke:none"
         transform="matrix(0.13333333,0,0,-0.13333333,0,2829.3333)" />
      <path
         id="path7"
         d="m 10959.5,12265.1 c 95.7,-81.9 219.4,-125.4 345.5,-116.5 33.6,2.3 62.4,26.9 62.4,62.3 0,31.9 -28.6,64.7 -62.4,62.4 -25.8,-1.9 -51.6,-1.4 -77.3,1.3 l -10.1,1.4 c -6.9,1.2 -13.8,2.6 -20.6,4.2 -12.6,2.8 -25,6.3 -37.3,10.4 -5.6,1.8 -11.2,3.8 -16.7,5.9 l -8.8,3.7 c -11.8,5.4 -23.4,11.1 -34.7,17.5 -10.2,5.8 -20.1,12.1 -29.7,18.7 l -11.5,8.2 -10.6,8.7 c -18.6,15.9 -35.1,33.6 -51,52.1 l -2.7,2.9 -1.9,3 c -4,5.6 -8,11.2 -11.7,16.9 -7.1,10.7 -13.6,21.7 -19.6,33 -2.8,5.2 -5.4,10.5 -8,15.9 l -4,8.9 c -5.1,12.3 -9.5,24.9 -13.2,37.7 -3.5,11.7 -6.4,23.6 -8.7,35.5 -1,5.1 -1.9,10.2 -2.7,15.3 l -1.9,17.4 c -2.8,33.5 -26.6,62.3 -62.3,62.3 -31.6,0 -65.3,-28.6 -62.4,-62.3 10.6,-125.2 65.6,-244.3 161.9,-326.8"
         style="fill:#5b0e39;fill-opacity:1;fill-rule:nonzero;stroke:none"
         transform="matrix(0.13333333,0,0,-0.13333333,0,2829.3333)" />
      <path
         id="path8"
         d="m 13275.7,13314.2 c 0,-31.2 28.7,-65.7 62.4,-62.4 285.4,28 554.2,153.7 755.2,359.2 56.1,57.4 -32,145.7 -88.2,88.2 -176.7,-180.6 -415,-297.9 -667,-322.6 -33.5,-3.3 -62.4,-26.3 -62.4,-62.4"
         style="fill:#5b0e39;fill-opacity:1;fill-rule:nonzero;stroke:none"
         transform="matrix(0.13333333,0,0,-0.13333333,0,2829.3333)" />
      <path
         id="path9"
         d="m 9167.68,14064.8 c 155.05,-77.5 276.64,-191.3 357.2,-320.3 197.33,41.8 382.29,144.7 530.12,296.4 l 0.2,-1.6 c 0,0 266.5,314.9 618.7,151.5 l 0.5,1 c 9.7,-4 18.8,-9 28.7,-12.9 526.9,-203.2 1121.5,96.7 1328,669.9 59,163.6 78.8,331.6 66.4,493.1 l 1.2,-0.2 c 0,0 -1.9,14.9 2.1,40.1 448.6,-278 826.3,-737.1 1031.2,-1317.9 18.6,-52.7 34.8,-105.5 49.9,-158.3 64.4,61.7 139.7,116.2 225.7,159.2 119.4,59.6 244.2,90.7 364.5,96 30.1,30 59.2,61.7 86.7,95.7 383.7,473.9 348.4,1157.2 -78.9,1526 -91.4,78.9 -193.6,135.8 -301.1,173.8 l 0.1,1.3 c 0,0 -233.2,48.7 -189.5,510.7 l -0.5,0.3 c 16.8,318.3 -98.9,631.5 -342.9,842.3 -341.1,294.4 -828.5,298.8 -1206.5,47.8 l -0.8,0.4 c 0,0 -3.7,-2.8 -9.2,-6.7 -5.1,-3.5 -10.3,-6.8 -15.4,-10.4 -75.5,-48.8 -316.4,-174.2 -540.5,39.3 l -0.7,-1.1 c -12.2,11.7 -23.6,24 -36.6,35.2 -427.2,368.9 -1084.6,283.8 -1468.27,-190.2 -149.12,-184.2 -234.12,-399.9 -258.28,-616.6 l -0.69,0.5 c -35.14,-262.4 -207.11,-330.6 -267.21,-346.6 l -10.21,-2.6 c -6.87,-1.5 -10.79,-2 -10.79,-2 l 0.45,-0.7 c -256.23,-58.8 -498.1,-215.7 -667.38,-459.8 -347.17,-500.7 -258.22,-1175.8 198.61,-1507.9 76.03,-55.3 157.76,-96.4 242.26,-126.1 l -0.57,-1.1 c 0,0 16.93,-4.9 43.17,-18.2 77.26,-15.6 154.86,-41.6 230.29,-79.3"
         style="fill:#21224e;fill-opacity:1;fill-rule:nonzero;stroke:none"
         transform="matrix(0.13333333,0,0,-0.13333333,0,2829.3333)" />
      <path
         id="path10"
         d="m 9237.18,13376.6 c -252.06,24.7 -490.29,142 -666.99,322.6 -56.23,57.4 -144.4,-30.8 -88.19,-88.2 201,-205.5 469.73,-331.2 755.18,-359.2 33.56,-3.3 62.36,31.1 62.36,62.4 0,36.5 -28.7,59.1 -62.36,62.4"
         style="fill:#5b0e39;fill-opacity:1;fill-rule:nonzero;stroke:none"
         transform="matrix(0.13333333,0,0,-0.13333333,0,2829.3333)" />
      <path
         id="path11"
         d="m 12783.5,9872 c 147.2,153.2 229.8,325 229.8,506.5 0,418.9 -434.3,430.1 -1090.3,386.9 -205.5,-13.6 -432.9,-32.3 -675.5,-45.7 -172.9,-9.5 -353.4,-16.4 -539.4,-16.4 -455.9,0 -882.4,40.4 -1243.05,63.4 -652.19,41.6 -1088.34,26.3 -1088.34,-388.2 0,-153.6 59.69,-300.1 167.12,-434.5 C 6226.76,8917.4 5326.87,6434.3 5326.87,6434.3 c 0,0 1547.51,-2852.3 5279.73,-2852.3 3732.2,0 5279.7,2730.9 5279.7,2730.9 0,0 -937.3,2468.2 -3102.8,3559.1"
         style="fill:#f14f40;fill-opacity:1;fill-rule:nonzero;stroke:none"
         transform="matrix(0.13333333,0,0,-0.13333333,0,2829.3333)" />
      <path
         id="path12"
         d="m 12534.7,9787 c -869.3,-294 -1810.2,-367.2 -2714.45,-208.5 -252.8,44.4 -502.02,106.8 -746.19,185.8 -76.54,24.8 -109.33,-95.6 -33.15,-120.2 579.45,-187.6 1187.79,-277.2 1795.49,-270.2 l -0.3,-6.8 c 2.8,-50.5 4.7,-101 7.2,-151.5 l 0.1,-0.5 c 64.5,-1264.8 51.8,-2533.3 -41.2,-3796.3 -27.2,-369.5 -61.3,-738.4 -101.8,-1106.6 -8.7,-79.6 116.1,-79 124.8,0 144,1309.3 204,2627.5 177.9,3944.4 -6.4,321.4 -18.9,642.7 -35.4,963.7 v 1 c -2.5,48.6 -4.2,97.2 -6.9,145.8 l -1.4,9.2 c 282.4,9.4 564.2,39.4 842.5,90.8 259.8,47.9 515.7,115 766,199.6 75.6,25.6 43.1,146.1 -33.2,120.3"
         style="fill:#96251f;fill-opacity:1;fill-rule:nonzero;stroke:none"
         transform="matrix(0.13333333,0,0,-0.13333333,0,2829.3333)" />
      <path
         id="path13"
         d="m 11607.5,8144 -0.2,1.8 z m 83.2,-80.7 -2,0.1 z m 47.5,-121.4 c 32.5,4.4 53,47.6 43.6,76.7 -11.6,35.6 -42,48.3 -76.7,43.5 17.1,2.4 -5.5,1.2 -13.6,1.2 l -6.9,1.5 c -5.4,1.3 -10.5,3 -15.7,4.8 l -0.8,0.2 -1.6,1.1 -12.3,7 -7.8,5.3 -7.7,6.9 -11.5,12.1 -1,0.9 -0.9,1.6 -7.5,12.1 -3.3,6.3 -1.9,4.3 -2.3,7.3 -3.1,13.1 -0.4,5.9 c -0.3,5.6 -0.2,11.2 0.1,16.8 l 0.3,4.2 2.7,12.4 c 1.2,4.7 2.6,9.3 4.1,13.9 l 1.9,5.3 c 4.8,9.4 9.8,18.6 15.8,27.3 l 2.2,3.2 11.3,12.4 10.6,10 1.6,1.6 1.1,0.7 c 8.6,5.8 17.5,10.6 26.5,15.4 l 7.6,3.3 c 5,1.6 10.1,3.1 15.1,4.4 5.1,1.3 10.3,2.3 15.4,3.4 l 1.4,0.2 5.5,0.4 c 13.3,0.9 26.2,-0.2 39.5,-0.7 -12.3,0.5 2.1,-0.4 7,-1.4 6,-1.2 12.1,-2.6 18,-4.3 6,-1.7 11.9,-3.6 17.7,-5.7 l 7.5,-2.8 c -11.9,4.5 -0.4,-0.1 2.1,-1.3 11.9,-5.8 23.2,-12.6 34.1,-20.2 26.9,-18.7 70.4,-5.8 85.3,22.4 16.9,31.8 6.3,65.4 -22.3,85.3 -106.2,73.7 -257.9,73.3 -354.9,-15.7 -46.7,-42.9 -74.2,-101.7 -81,-164.1 -6.8,-62.3 17.5,-124 59.1,-169.7 50.7,-55.7 122.8,-78.5 196.1,-68.5"
         style="fill:#96251f;fill-opacity:1;fill-rule:nonzero;stroke:none"
         transform="matrix(0.13333333,0,0,-0.13333333,0,2829.3333)" />
      <path
         id="path14"
         d="m 11705,6632.2 -0.2,1.8 z m 83.1,-80.7 -1.9,0.1 z m 228.2,296.5 c -106.2,73.8 -257.8,73.4 -354.8,-15.7 -46.7,-42.8 -74.2,-101.7 -81,-164.1 -6.8,-62.2 17.5,-123.9 59.1,-169.6 50.7,-55.7 122.7,-78.6 196.1,-68.6 32.4,4.4 53,47.7 43.6,76.7 -11.6,35.7 -42,48.3 -76.8,43.6 17.2,2.3 -5.5,1.2 -13.5,1.2 l -7,1.5 c -5.3,1.3 -10.5,3 -15.7,4.8 l -0.7,0.2 -1.6,1.1 -12.4,7 -7.7,5.2 -7.8,6.9 -11.4,12.1 -1.1,1 -0.8,1.6 -7.5,12.1 -3.4,6.3 -1.8,4.3 -2.3,7.3 -3.1,13.1 -0.5,5.8 c -0.2,5.6 -0.2,11.3 0.2,16.9 l 0.3,4.2 2.6,12.4 c 1.2,4.7 2.6,9.3 4.2,13.9 l 1.9,5.3 c 4.8,9.4 9.8,18.6 15.7,27.3 l 2.3,3.2 11.2,12.4 10.7,10 1.5,1.6 1.2,0.7 c 8.6,5.8 17.4,10.5 26.5,15.4 l 7.6,3.2 c 5,1.7 10,3.2 15.1,4.5 5.1,1.3 10.3,2.3 15.4,3.3 l 1.4,0.2 5.5,0.4 c 13.3,0.9 26.2,-0.1 39.5,-0.6 -12.4,0.4 2,-0.4 6.9,-1.4 6.1,-1.2 12.1,-2.7 18.1,-4.3 6,-1.7 11.9,-3.6 17.7,-5.7 l 7.4,-2.8 c -11.9,4.4 -0.4,-0.1 2.1,-1.3 12,-5.8 23.3,-12.7 34.2,-20.3 26.9,-18.6 70.4,-5.8 85.3,22.4 16.8,31.9 6.3,65.4 -22.4,85.3"
         style="fill:#96251f;fill-opacity:1;fill-rule:nonzero;stroke:none"
         transform="matrix(0.13333333,0,0,-0.13333333,0,2829.3333)" />
      <path
         id="path15"
         d="m 11647.5,5120.3 -0.1,1.9 z m 83.2,-80.7 -2,0.2 z m 228.2,296.6 c -106.2,73.8 -257.8,73.3 -354.9,-15.7 -46.6,-42.8 -74.2,-101.7 -81,-164.1 -6.8,-62.3 17.6,-124 59.2,-169.7 50.7,-55.7 122.7,-78.5 196,-68.5 32.5,4.4 53,47.6 43.6,76.7 -11.6,35.7 -41.9,48.3 -76.7,43.6 17.1,2.3 -5.5,1.2 -13.5,1.1 l -7,1.5 c -5.4,1.4 -10.5,3.1 -15.7,4.9 l -0.8,0.2 -1.6,1 -12.3,7 -7.8,5.3 -7.7,6.9 -11.5,12.1 -1,1 -0.9,1.5 -7.5,12.2 -3.3,6.3 -1.8,4.2 -2.4,7.4 -3.1,13 -0.4,5.9 c -0.3,5.6 -0.2,11.2 0.1,16.8 l 0.3,4.2 2.7,12.5 c 1.2,4.6 2.6,9.2 4.1,13.8 l 1.9,5.3 c 4.8,9.5 9.8,18.6 15.8,27.4 l 2.2,3.1 11.3,12.4 10.6,10 1.6,1.7 1.1,0.7 c 8.6,5.8 17.5,10.5 26.5,15.3 l 7.7,3.3 c 4.9,1.7 10,3.2 15.1,4.5 5.1,1.3 10.2,2.3 15.3,3.3 l 1.4,0.2 5.5,0.4 c 13.3,0.9 26.2,-0.2 39.5,-0.7 -12.3,0.5 2.1,-0.3 7,-1.3 6.1,-1.3 12.1,-2.7 18,-4.4 6,-1.6 11.9,-3.5 17.7,-5.7 l 7.5,-2.8 c -11.9,4.5 -0.4,0 2.1,-1.2 11.9,-5.9 23.2,-12.7 34.1,-20.3 26.9,-18.6 70.5,-5.8 85.4,22.4 16.8,31.8 6.3,65.4 -22.4,85.3"
         style="fill:#96251f;fill-opacity:1;fill-rule:nonzero;stroke:none"
         transform="matrix(0.13333333,0,0,-0.13333333,0,2829.3333)" />
      <path
         id="path16"
         d="m 8336.66,8938.3 c 100.59,-1039.3 -90.57,-2074.1 -342.3,-3079 -71.82,-286.7 -148.69,-572.1 -225.83,-857.5 -20.97,-77.6 99.31,-110.7 120.27,-33.1 272.7,1008.7 546.81,2030.4 593.95,3079.6 13.33,296.8 7.27,594.2 -21.36,890 -7.67,79.2 -132.47,80 -124.73,0"
         style="fill:#96251f;fill-opacity:1;fill-rule:nonzero;stroke:none"
         transform="matrix(0.13333333,0,0,-0.13333333,0,2829.3333)" />
      <path
         id="path17"
         d="m 13262.9,8999.4 c -37.6,70.9 -145.3,8 -107.7,-63 455.1,-858.7 781.3,-1783.3 966.2,-2737.4 52.7,-272.3 93.6,-546.6 123,-822.3 8.4,-79 133.2,-79.8 124.7,0 -105,987.2 -356.1,1954.3 -745.5,2867.6 -109.4,256.7 -230,508.5 -360.7,755.1"
         style="fill:#96251f;fill-opacity:1;fill-rule:nonzero;stroke:none"
         transform="matrix(0.13333333,0,0,-0.13333333,0,2829.3333)" />
    </g>
  </g>
</svg>
