<?xml version="1.0" encoding="UTF-8" standalone="no"?>
<!-- Created with Inkscape (http://www.inkscape.org/) -->

<svg
   version="1.1"
   id="svg1"
   width="2829.3333"
   height="2829.3333"
   viewBox="0 0 2829.3333 2829.3333"
   sodipodi:docname="bearded-guy.eps"
   xmlns:inkscape="http://www.inkscape.org/namespaces/inkscape"
   xmlns:sodipodi="http://sodipodi.sourceforge.net/DTD/sodipodi-0.dtd"
   xmlns="http://www.w3.org/2000/svg"
   xmlns:svg="http://www.w3.org/2000/svg">
  <defs
     id="defs1" />
  <sodipodi:namedview
     id="namedview1"
     pagecolor="#ffffff"
     bordercolor="#000000"
     borderopacity="0.25"
     inkscape:showpageshadow="2"
     inkscape:pageopacity="0.0"
     inkscape:pagecheckerboard="0"
     inkscape:deskcolor="#d1d1d1">
    <inkscape:page
       x="0"
       y="0"
       inkscape:label="1"
       id="page1"
       width="2829.3333"
       height="2829.3333"
       margin="0"
       bleed="0" />
  </sodipodi:namedview>
  <g
     id="g1"
     inkscape:groupmode="layer"
     inkscape:label="1">
    <g
       id="group-R5">
      <path
         id="path2"
         d="m 11605,10771 -313.6,1588.8 c 205.4,-65.2 456.2,-37.6 678.4,95.9 370.9,222.7 521.1,653.8 335.5,962.9 -97.2,161.9 -267.5,257.5 -460.8,280.4 639.8,603.6 1679.4,1797.7 -172.5,1748.7 0,0 -712.3,3486.3 -3895.75,491.5 -376.4,-354.1 -228.44,-983.7 264.47,-1139 0,0 38.56,-18.4 110.19,-44.7 -66.48,-90.9 -128.41,-187.4 -184.9,-289.2 -316.91,-571.4 -402.22,-1197.6 -283.67,-1740.2 l -0.06,-0.1 0.62,-2.5 c 6.48,-29.5 13.58,-58.7 21.25,-87.7 l 2.11,-7.9 c 7.57,-28.1 15.72,-56 24.42,-83.5 l 3.33,-10.4 c 8.56,-26.7 17.65,-53.1 27.26,-79.2 l 4.87,-13 c 9.45,-25.1 19.37,-49.9 29.79,-74.5 2.2,-5.2 4.49,-10.4 6.73,-15.5 10.23,-23.6 20.87,-46.9 32,-69.9 2.9,-6 5.93,-11.9 8.91,-17.9 10.91,-22 22.15,-43.7 33.88,-65.1 3.71,-6.8 7.6,-13.5 11.39,-20.2 11.49,-20.3 23.23,-40.5 35.46,-60.3 4.65,-7.6 9.52,-14.9 14.28,-22.4 11.93,-18.7 24.01,-37.2 36.61,-55.4 5.71,-8.3 11.7,-16.3 17.54,-24.4 12.26,-17.1 24.6,-34.1 37.46,-50.6 6.83,-8.8 14.01,-17.4 21.01,-26 12.5,-15.5 25.01,-31 38.05,-46 8.11,-9.3 16.61,-18.3 24.94,-27.5 12.56,-13.8 25.07,-27.7 38.11,-41.1 9.62,-9.9 19.7,-19.4 29.59,-29.1 12.43,-12.1 24.71,-24.4 37.54,-36.2 11.27,-10.3 23.05,-20.1 34.63,-30.2 12.15,-10.5 24.09,-21.2 36.58,-31.4 13.24,-10.8 27.07,-21 40.7,-31.4 11.51,-8.8 22.73,-17.9 34.51,-26.4 16.35,-11.8 33.35,-22.9 50.21,-34.1 9.72,-6.5 19.11,-13.3 28.99,-19.6 27.09,-17.2 54.79,-33.8 83.16,-49.5 28.3,-15.7 56.93,-30.4 85.81,-44.2 9.86,-4.8 19.91,-8.8 29.83,-13.3 19.14,-8.7 38.25,-17.6 57.61,-25.5 12.03,-4.9 24.24,-9.1 36.34,-13.7 17.49,-6.7 34.93,-13.5 52.58,-19.5 13.14,-4.5 26.43,-8.3 39.65,-12.5 16.82,-5.2 33.58,-10.6 50.53,-15.4 13.96,-3.8 28.04,-7.1 42.08,-10.6 16.36,-4 32.68,-8.3 49.13,-11.8 l 10.58,-2.5 142.21,-720.4 C 6463.23,9796.5 5326.87,6804 5326.87,6804 c 0,0 1547.51,-2730.9 5279.73,-2730.9 3732.2,0 5279.7,2852.3 5279.7,2852.3 0,0 -1171,3231.3 -4281.3,3845.6"
         style="fill:#f14263;fill-opacity:1;fill-rule:nonzero;stroke:none"
         transform="matrix(0.13333333,0,0,-0.13333333,0,2829.3333)" />
      <path
         id="path3"
         d="m 9719.19,11373.7 c -12.62,-2.6 -25.24,-5.2 -37.88,-7.6 -18.51,-3.5 -37.02,-6.8 -55.56,-9.8 -13.29,-2.1 -26.58,-4.1 -39.88,-5.9 -17.96,-2.5 -35.9,-4.8 -53.87,-6.8 -13.91,-1.5 -27.82,-2.8 -41.73,-4 -17.41,-1.6 -34.8,-3 -52.18,-4 -14.52,-0.8 -29.01,-1.4 -43.5,-1.9 -16.83,-0.5 -33.64,-1 -50.44,-1.1 -14.99,-0.2 -29.95,0.1 -44.91,0.4 -16.34,0.3 -32.66,0.6 -48.96,1.4 -15.35,0.7 -30.65,1.9 -45.96,3 -15.85,1.2 -31.69,2.3 -47.48,3.9 -15.75,1.6 -31.41,3.7 -47.1,5.8 -15.27,2 -30.55,3.8 -45.76,6.2 -16.09,2.6 -32.08,5.7 -48.1,8.7 -11.16,2.1 -22.41,3.8 -33.53,6.1 L 9196.54,10283 c 468.8,92.6 773.83,547.6 681.29,1016.4 -7.2,36.5 -17.29,71.5 -28.7,105.9 -12.36,-3.5 -24.77,-6.4 -37.15,-9.6 -11.86,-3.1 -23.72,-6.2 -35.6,-9.1 -19.05,-4.6 -38.1,-8.9 -57.19,-12.9"
         style="fill:#b62532;fill-opacity:1;fill-rule:nonzero;stroke:none"
         transform="matrix(0.13333333,0,0,-0.13333333,0,2829.3333)" />
      <path
         id="path4"
         d="m 11109.9,14941 c 0,0 -682.7,-795.1 107.2,-1421 25.7,19.3 52.3,37.9 80.6,54.9 176.6,106.1 371.1,145 546.8,124.1 639.8,603.6 1679.4,1797.7 -172.5,1748.7 0,0 -712.3,3486.3 -3895.75,491.5 -376.4,-354.1 -228.44,-983.7 264.47,-1139 0,0 38.56,-18.4 110.19,-44.7 344.57,-126.4 1472.72,-439.9 2958.99,185.5"
         style="fill:#5b0e39;fill-opacity:1;fill-rule:nonzero;stroke:none"
         transform="matrix(0.13333333,0,0,-0.13333333,0,2829.3333)" />
      <path
         id="path5"
         d="m 11269.9,12881.3 c -33.2,-5.8 -51.9,-46.4 -43.6,-76.7 9.7,-35 43.5,-49.4 76.8,-43.5 275,48.6 530.8,196.7 710,410.9 21.6,25.8 25.3,62.9 0,88.2 -22.2,22.2 -66.4,25.9 -88.2,0 -167.2,-199.9 -398.4,-333.5 -655,-378.9"
         style="fill:#b62532;fill-opacity:1;fill-rule:nonzero;stroke:none"
         transform="matrix(0.13333333,0,0,-0.13333333,0,2829.3333)" />
      <path
         id="path6"
         d="m 11605,10771 101.2,-513 c 33.1,-167.3 -479.9,-409.4 -1145.6,-540.8 -665.73,-131.4 -1232.18,-102.3 -1265.19,64.9 l -170.85,865.6 C 6463.23,9796.5 5326.87,6804 5326.87,6804 c 0,0 1547.51,-2730.9 5279.73,-2730.9 3732.2,0 5279.7,2852.3 5279.7,2852.3 0,0 -1171,3231.3 -4281.3,3845.6"
         style="fill:#9c61b7;fill-opacity:1;fill-rule:nonzero;stroke:none"
         transform="matrix(0.13333333,0,0,-0.13333333,0,2829.3333)" />
      <path
         id="path7"
         d="m 8408.91,13839.6 c -37.29,10.7 -82.82,-34.1 -101.7,-100.1 -18.88,-66 -3.94,-128.2 33.35,-138.8 37.3,-10.7 82.83,34.1 101.71,100.1 18.87,66 3.94,128.2 -33.36,138.8"
         style="fill:#b62532;fill-opacity:1;fill-rule:nonzero;stroke:none"
         transform="matrix(0.13333333,0,0,-0.13333333,0,2829.3333)" />
      <path
         id="path8"
         d="m 9704.82,13600.7 c 37.29,-10.7 82.83,34.1 101.7,100.1 18.88,66 3.95,128.2 -33.35,138.8 -37.29,10.7 -82.83,-34.1 -101.7,-100.1 -18.88,-66 -3.95,-128.2 33.35,-138.8"
         style="fill:#b62532;fill-opacity:1;fill-rule:nonzero;stroke:none"
         transform="matrix(0.13333333,0,0,-0.13333333,0,2829.3333)" />
      <path
         id="path9"
         d="m 10988.9,12573.1 c -100.4,31.6 -202,59.2 -302.6,84.6 -327.7,82.7 -661.3,160.7 -995.47,211.7 -361.56,55.2 -740.94,79.2 -1113.93,50 -7.89,7.8 -15.99,15.5 -23.85,23.4 -67.52,67.9 -34.79,135.4 13.59,196.7 63.75,80.7 127.5,161.4 191.25,242.2 49.21,62.3 98.42,124.6 147.63,186.9 49.22,62.3 -38.46,151.2 -88.19,88.2 -113.6,-143.9 -227.2,-287.7 -340.8,-431.5 -16.78,-21.3 -35.9,-42.5 -50.54,-65.3 -48.57,-75.7 -49.8,-176.1 -3.54,-253.1 l 1.54,-2.3 c -254.44,-30.4 -504.28,-87.5 -741.65,-178.5 l -0.06,-0.1 0.62,-2.5 c 6.48,-29.5 13.58,-58.7 21.25,-87.7 l 2.11,-7.9 c 7.57,-28.1 15.72,-56 24.42,-83.5 l 3.33,-10.4 c 8.56,-26.7 17.65,-53.1 27.26,-79.2 l 4.87,-13 c 9.45,-25.1 19.37,-49.9 29.79,-74.5 2.2,-5.2 4.49,-10.4 6.73,-15.5 10.23,-23.6 20.87,-46.9 32,-69.9 2.9,-6 5.93,-11.9 8.91,-17.9 10.91,-22 22.15,-43.7 33.88,-65.1 3.71,-6.8 7.6,-13.5 11.39,-20.2 11.49,-20.3 23.23,-40.5 35.46,-60.3 4.65,-7.6 9.52,-14.9 14.28,-22.4 11.93,-18.7 24.01,-37.2 36.61,-55.4 5.71,-8.3 11.7,-16.3 17.54,-24.4 12.26,-17.1 24.6,-34.1 37.46,-50.6 6.83,-8.8 14.01,-17.4 21.01,-26 12.5,-15.5 25.01,-31 38.05,-46 8.11,-9.3 16.61,-18.3 24.94,-27.5 12.56,-13.8 25.07,-27.7 38.11,-41.1 9.62,-9.9 19.7,-19.4 29.59,-29.1 12.43,-12.1 24.71,-24.4 37.54,-36.2 11.27,-10.3 23.05,-20.1 34.63,-30.2 12.15,-10.5 24.09,-21.2 36.58,-31.4 13.24,-10.8 27.07,-21 40.7,-31.4 11.51,-8.8 22.73,-17.9 34.51,-26.4 16.35,-11.8 33.35,-22.9 50.21,-34.1 9.72,-6.5 19.11,-13.3 28.99,-19.6 27.09,-17.2 54.79,-33.8 83.16,-49.5 28.3,-15.7 56.93,-30.4 85.81,-44.2 9.86,-4.8 19.91,-8.8 29.83,-13.3 19.14,-8.7 38.25,-17.6 57.61,-25.5 12.03,-4.9 24.24,-9.1 36.34,-13.7 17.49,-6.7 34.93,-13.5 52.58,-19.5 13.14,-4.5 26.43,-8.3 39.65,-12.5 16.82,-5.2 33.58,-10.6 50.53,-15.4 13.96,-3.8 28.04,-7.1 42.08,-10.6 16.36,-4 32.68,-8.3 49.13,-11.8 14.64,-3.2 29.39,-5.8 44.11,-8.6 16.02,-3 32.01,-6.1 48.1,-8.7 15.21,-2.4 30.49,-4.2 45.76,-6.2 15.69,-2.1 31.35,-4.2 47.1,-5.8 15.79,-1.6 31.64,-2.7 47.48,-3.9 15.31,-1.1 30.61,-2.3 45.96,-3 16.29,-0.7 32.63,-1.1 48.96,-1.4 14.96,-0.3 29.92,-0.6 44.91,-0.4 16.8,0.1 33.61,0.6 50.44,1.1 14.49,0.5 28.98,1.1 43.5,1.9 17.38,1.1 34.78,2.4 52.18,4 13.91,1.2 27.82,2.5 41.73,4 17.96,2 35.92,4.3 53.87,6.8 13.3,1.8 26.59,3.8 39.88,5.9 18.53,3 37.05,6.3 55.56,9.8 12.64,2.4 25.26,5 37.88,7.6 19.09,4.1 38.15,8.3 57.19,12.9 11.88,2.9 23.74,6 35.6,9.1 521.12,136.4 1020.02,489 1371.42,1009.3 -76.6,40.9 -143.1,97.1 -194.5,168.1"
         style="fill:#5b0e39;fill-opacity:1;fill-rule:nonzero;stroke:none"
         transform="matrix(0.13333333,0,0,-0.13333333,0,2829.3333)" />
      <path
         id="path10"
         d="m 12754.6,8515.1 c -17.1,73.5 -34,147.2 -48.3,221.4 -15.2,78.7 -135.4,45.4 -120.3,-33.2 43.3,-224.5 101.4,-446.8 162,-667.2 144.3,-525.5 319.6,-1043.1 528.3,-1546.6 144.9,-349.5 305.7,-692.1 486.6,-1024.4 38.4,-70.5 146.2,-7.6 107.7,63 -508.4,933.4 -874.7,1952.5 -1116,2987"
         style="fill:#5b349a;fill-opacity:1;fill-rule:nonzero;stroke:none"
         transform="matrix(0.13333333,0,0,-0.13333333,0,2829.3333)" />
      <path
         id="path11"
         d="m 7662.72,9155.6 c -126.78,-166.3 -243.05,-341.4 -356.57,-516.8 -274.61,-424.5 -524.45,-865.7 -743.6,-1321.4 -150.41,-312.8 -286.07,-632.8 -402.83,-959.6 -27.05,-75.7 93.42,-108.3 120.27,-33.2 329.02,921.1 804.88,1797.5 1366.78,2597.2 40.39,57.5 81.05,115 123.65,170.8 48.65,63.9 -59.62,126.1 -107.7,63"
         style="fill:#5b349a;fill-opacity:1;fill-rule:nonzero;stroke:none"
         transform="matrix(0.13333333,0,0,-0.13333333,0,2829.3333)" />
      <path
         id="path12"
         d="m 8604.74,12717.9 c 70.86,-69.2 141.73,-138.5 212.59,-207.7 57.44,-56.1 145.72,32 88.19,88.2 -109.48,107 -220.27,212.8 -328.62,321 -7.89,7.8 -15.99,15.5 -23.85,23.4 -67.52,67.9 -34.79,135.4 13.59,196.7 63.75,80.7 127.5,161.4 191.25,242.2 49.21,62.3 98.42,124.6 147.63,186.9 49.22,62.3 -38.46,151.2 -88.19,88.2 -113.6,-143.9 -227.2,-287.7 -340.8,-431.5 -16.78,-21.3 -35.9,-42.5 -50.54,-65.3 -48.57,-75.7 -49.8,-176.1 -3.54,-253.1 l 1.54,-2.3 c 43.58,-71 122.22,-129.5 180.75,-186.7"
         style="fill:#b62532;fill-opacity:1;fill-rule:nonzero;stroke:none"
         transform="matrix(0.13333333,0,0,-0.13333333,0,2829.3333)" />
      <path
         id="path13"
         d="m 9324.73,12254.9 c -32.61,-0.2 -63.88,-28.5 -62.37,-62.3 1.51,-33.6 27.41,-62.6 62.37,-62.4 125.74,0.9 247.9,50.5 337.02,139.6 89.13,89.1 138.74,211.3 139.61,337.1 0.22,32.6 -28.84,63.8 -62.37,62.3 -33.98,-1.5 -62.12,-27.4 -62.36,-62.3 -0.09,-13.5 -0.64,-26.9 -1.92,-40.3 l -0.86,-7.7 -0.6,-3.8 c -1.02,-5.5 -1.95,-11 -3.09,-16.5 -2.63,-12.7 -5.9,-25.3 -9.72,-37.7 -2.17,-7 -4.53,-14 -7.07,-20.9 l -3.25,-8.3 c -9.66,-22.3 -21.46,-43.7 -34.97,-63.9 -3.52,-5.2 -7.19,-10.3 -10.9,-15.4 l -0.2,-0.3 -5.04,-6.2 c -8.06,-9.7 -16.55,-19 -25.45,-27.9 -8.89,-8.9 -18.2,-17.4 -27.86,-25.4 l -6.97,-5.5 c -4.93,-3.7 -9.89,-7.2 -14.98,-10.7 -20.13,-13.5 -41.57,-25.3 -63.83,-34.9 l -8.36,-3.3 c -6.9,-2.5 -13.86,-4.9 -20.88,-7.1 -12.4,-3.8 -24.97,-7 -37.67,-9.7 -5.5,-1.1 -11.05,-2 -16.55,-3.1 l -4.02,-0.6 -4.65,-0.5 c -14.32,-1.5 -28.67,-2.1 -43.06,-2.3"
         style="fill:#b62532;fill-opacity:1;fill-rule:nonzero;stroke:none"
         transform="matrix(0.13333333,0,0,-0.13333333,0,2829.3333)" />
    </g>
  </g>
</svg>
