<?xml version="1.0" encoding="UTF-8" standalone="no"?>
<!-- Created with Inkscape (http://www.inkscape.org/) -->

<svg
   version="1.1"
   id="svg1"
   width="2829.3333"
   height="2829.3333"
   viewBox="0 0 2829.3333 2829.3333"
   sodipodi:docname="dark-haired-lady.eps"
   xmlns:inkscape="http://www.inkscape.org/namespaces/inkscape"
   xmlns:sodipodi="http://sodipodi.sourceforge.net/DTD/sodipodi-0.dtd"
   xmlns="http://www.w3.org/2000/svg"
   xmlns:svg="http://www.w3.org/2000/svg">
  <defs
     id="defs1" />
  <sodipodi:namedview
     id="namedview1"
     pagecolor="#ffffff"
     bordercolor="#000000"
     borderopacity="0.25"
     inkscape:showpageshadow="2"
     inkscape:pageopacity="0.0"
     inkscape:pagecheckerboard="0"
     inkscape:deskcolor="#d1d1d1">
    <inkscape:page
       x="0"
       y="0"
       inkscape:label="1"
       id="page1"
       width="2829.3333"
       height="2829.3333"
       margin="0"
       bleed="0" />
  </sodipodi:namedview>
  <g
     id="g1"
     inkscape:groupmode="layer"
     inkscape:label="1">
    <g
       id="group-R5">
      <path
         id="path2"
         d="m 11660.5,10427.9 -55.6,470.6 c 165.8,-96.1 364.3,-157.3 595.6,-175.3 862.3,-66.9 1850,487.7 1916.9,1349.9 66.9,862.3 -360.4,1620.3 -1222.7,1687.2 -269.3,20.9 -549.1,-28.1 -808.8,-131.6 404.8,830.8 279.7,1801.7 -663.6,2149.7 0.5,5.2 1.3,10.2 1.7,15.3 67,862.3 -360.4,1620.3 -1222.6,1687.2 -862.3,66.9 -1832.95,-582.6 -1899.86,-1444.9 -32.56,-419.5 48.19,-791.6 238.66,-1071.1 -89.8,-99.6 -174.16,-207.4 -251.09,-323.8 -227.35,-344.1 -364.02,-717.2 -415.18,-1084 -662.84,-180.5 -1252.68,-718.8 -1304.31,-1384.2 -66.92,-862.3 343.37,-1525.3 1205.62,-1592.2 467.79,-36.3 972.2,110.6 1346.78,390 l 40.94,-346.9 33.69,-285.5 C 6483.67,9518.7 5326.87,6472 5326.87,6472 c 0,0 1547.51,-2730.9 5279.73,-2730.9 3732.2,0 5279.7,2852.3 5279.7,2852.3 0,0 -1157,3193.1 -4225.8,3834.5"
         style="fill:#fbc4a3;fill-opacity:1;fill-rule:nonzero;stroke:none"
         transform="matrix(0.13333333,0,0,-0.13333333,0,2829.3333)" />
      <path
         id="path3"
         d="m 11660.5,10427.9 32,-271.9 c 20,-169.3 -510.1,-371 -1184,-450.5 -673.91,-79.5 -1236.41,-6.7 -1256.38,162.6 l -55.47,470.2 C 6483.67,9518.7 5326.87,6472 5326.87,6472 c 0,0 1547.51,-2730.9 5279.73,-2730.9 3732.2,0 5279.7,2852.3 5279.7,2852.3 0,0 -1157,3193.1 -4225.8,3834.5"
         style="fill:#f68cc6;fill-opacity:1;fill-rule:nonzero;stroke:none"
         transform="matrix(0.13333333,0,0,-0.13333333,0,2829.3333)" />
      <path
         id="path4"
         d="m 8623,11677.2 c -593.71,392.2 -854.69,1122.6 -749.07,1880 -662.84,-180.6 -1252.68,-718.9 -1304.31,-1384.3 -66.92,-862.3 343.37,-1525.3 1205.62,-1592.2 467.79,-36.3 972.2,110.6 1346.78,390 l -59.32,502.8 c -153.82,45 -301.65,112.5 -439.7,203.7"
         style="fill:#21224e;fill-opacity:1;fill-rule:nonzero;stroke:none"
         transform="matrix(0.13333333,0,0,-0.13333333,0,2829.3333)" />
      <path
         id="path5"
         d="m 9812.66,11424 c -255.05,-35.6 -509.81,-20.6 -749.96,49.5 l 59.32,-502.8 40.94,-346.9 c 398.7,47 685.01,402.9 649.7,800.2"
         style="fill:#b62532;fill-opacity:1;fill-rule:nonzero;stroke:none"
         transform="matrix(0.13333333,0,0,-0.13333333,0,2829.3333)" />
      <path
         id="path6"
         d="m 9051.55,12544.3 c 53,-60.5 140.92,28 88.2,88.2 -107.49,122.7 -219.37,242.6 -322.95,368.6 -61.16,74.4 -19.67,139 33.78,196.8 69.8,75.6 139.6,151.1 209.4,226.7 53.88,58.3 107.77,116.6 161.66,174.9 54.4,58.9 -33.59,147.3 -88.2,88.2 -124.39,-134.6 -248.78,-269.2 -373.16,-403.9 -18.77,-20.3 -38.83,-40.1 -55.03,-62.6 -55.16,-76.6 -59.73,-181.5 -11.46,-262.9 42.28,-71.2 111.63,-133.1 165.71,-194.8 64.02,-73.1 128.04,-146.1 192.05,-219.2"
         style="fill:#b62532;fill-opacity:1;fill-rule:nonzero;stroke:none"
         transform="matrix(0.13333333,0,0,-0.13333333,0,2829.3333)" />
      <path
         id="path7"
         d="m 8595.57,13749.1 c 36.35,-13.5 85.22,27.6 109.15,92 23.92,64.3 13.84,127.4 -22.52,140.9 -36.35,13.6 -85.23,-27.6 -109.15,-92 -23.92,-64.3 -13.84,-127.4 22.52,-140.9"
         style="fill:#b62532;fill-opacity:1;fill-rule:nonzero;stroke:none"
         transform="matrix(0.13333333,0,0,-0.13333333,0,2829.3333)" />
      <path
         id="path8"
         d="m 9955.73,13643.5 c 36.36,-13.5 85.27,27.7 109.17,92 23.9,64.4 13.8,127.5 -22.5,141 -36.4,13.5 -85.26,-27.7 -109.18,-92 -23.93,-64.3 -13.84,-127.5 22.51,-141"
         style="fill:#b62532;fill-opacity:1;fill-rule:nonzero;stroke:none"
         transform="matrix(0.13333333,0,0,-0.13333333,0,2829.3333)" />
      <path
         id="path9"
         d="m 9975.28,12650.1 c 2.86,33.6 -30.71,62.3 -62.36,62.3 -36.12,0 -59.5,-28.6 -62.37,-62.3 l -1.15,-12.5 -0.25,-2.1 -0.92,-6 -2.22,-12.1 c -2.38,-12 -5.3,-23.8 -8.71,-35.5 -3.65,-12.5 -7.94,-24.8 -12.75,-36.9 l -4.47,-9.8 c -2.56,-5.3 -5.23,-10.6 -8.01,-15.8 -5.54,-10.5 -11.52,-20.7 -17.93,-30.6 -3.73,-5.7 -7.69,-11.3 -11.6,-16.9 l -3.71,-5.1 -2.61,-3.2 c -15.92,-18.6 -32.44,-36.2 -51.05,-52.1 -11.96,-10.2 -29.32,-22.8 -51.77,-35.6 -11.06,-6.3 -22.41,-12 -33.95,-17.3 l -1.8,-0.9 -7.78,-3 c -5.53,-2.1 -11.11,-4.1 -16.73,-6 -11.31,-3.7 -22.76,-6.9 -34.34,-9.7 -6.81,-1.6 -13.65,-3 -20.53,-4.3 l -13.32,-2 c -25.66,-2.7 -51.36,-3.1 -77.11,-1.3 -33.64,2.4 -62.36,-30.3 -62.36,-62.3 0,-35.7 28.62,-60 62.36,-62.4 126.16,-8.8 249.87,34.7 345.53,116.6 96.3,82.4 151.26,201.6 161.91,326.8"
         style="fill:#b62532;fill-opacity:1;fill-rule:nonzero;stroke:none"
         transform="matrix(0.13333333,0,0,-0.13333333,0,2829.3333)" />
      <path
         id="path10"
         d="m 11472.3,12806.4 c -33.5,-3.3 -62.3,-26.3 -62.3,-62.4 0,-31.1 28.6,-65.6 62.3,-62.3 285.5,28 554.2,153.7 755.2,359.1 56.2,57.4 -31.9,145.7 -88.2,88.2 -176.7,-180.6 -414.9,-297.9 -667,-322.6"
         style="fill:#b62532;fill-opacity:1;fill-rule:nonzero;stroke:none"
         transform="matrix(0.13333333,0,0,-0.13333333,0,2829.3333)" />
      <path
         id="path11"
         d="m 8320.37,13705.7 c -89.91,110.6 -99.81,270.7 -27.01,392.5 72.07,120.6 217.41,188.7 356.38,162 163.43,-31.4 280.36,-172.8 282.64,-338.6 -1.95,-142.2 -89.41,-274.1 -224.93,-322.9 -138.01,-49.8 -294.43,-7 -387.08,107 z m 1383.55,269.5 c 72.07,120.7 217.42,188.8 356.38,162.1 163.4,-31.4 280.4,-172.8 282.6,-338.7 -1.9,-142.2 -89.4,-274 -224.9,-322.9 -137.99,-49.7 -294.42,-6.9 -387.07,107.1 -89.91,110.6 -99.81,270.6 -27.01,392.4 z m -665.67,-179.1 c 149.86,78.2 335.7,76.5 483.43,-6 l 10.24,-4.5 c 1.67,-78.4 22.46,-156.5 64.3,-226.5 101.27,-169.5 298.89,-255.1 491.78,-220.4 219.9,39.6 376.6,240.1 379.7,459.9 0,5.1 -0.4,9.9 -1.3,14.4 -8.3,189.9 -126.3,357.1 -305.1,425.1 -181.91,69.1 -398.77,10.9 -521.9,-139.5 -44.41,-54.3 -75.29,-117.1 -92.34,-183 -153.75,72.8 -332.28,80.6 -491.49,23.3 -9.4,188.7 -126.95,354.5 -304.85,422.1 -181.89,69.2 -398.75,11 -521.88,-139.5 -124.26,-151.9 -144.65,-369.7 -43.18,-539.5 101.27,-169.5 298.88,-255.1 491.82,-220.3 176.95,31.8 312.81,167.9 360.77,334.4"
         style="fill:#f683bc;fill-opacity:1;fill-rule:nonzero;stroke:none"
         transform="matrix(0.13333333,0,0,-0.13333333,0,2829.3333)" />
      <path
         id="path12"
         d="m 10274.9,13164.5 c -62.8,0 -113.8,-27.4 -113.8,-61.3 0,-33.9 51,-61.4 113.8,-61.4 62.8,0 113.7,27.5 113.7,61.4 0,33.9 -50.9,61.3 -113.7,61.3"
         style="fill:#f57c58;fill-opacity:1;fill-rule:nonzero;stroke:none"
         transform="matrix(0.13333333,0,0,-0.13333333,0,2829.3333)" />
      <path
         id="path13"
         d="m 10087.5,12871.3 c 62.8,0 113.7,27.5 113.7,61.4 0,33.9 -50.9,61.4 -113.7,61.4 -62.9,0 -113.8,-27.5 -113.8,-61.4 0,-33.9 50.9,-61.4 113.8,-61.4"
         style="fill:#f57c58;fill-opacity:1;fill-rule:nonzero;stroke:none"
         transform="matrix(0.13333333,0,0,-0.13333333,0,2829.3333)" />
      <path
         id="path14"
         d="m 10353.7,12932.7 c 0,-33.9 50.9,-61.4 113.7,-61.4 62.9,0 113.8,27.5 113.8,61.4 0,33.9 -50.9,61.4 -113.8,61.4 -62.8,0 -113.7,-27.5 -113.7,-61.4"
         style="fill:#f57c58;fill-opacity:1;fill-rule:nonzero;stroke:none"
         transform="matrix(0.13333333,0,0,-0.13333333,0,2829.3333)" />
      <path
         id="path15"
         d="m 8408.76,13127 c 0,33.9 -50.92,61.4 -113.75,61.4 -62.82,0 -113.75,-27.5 -113.75,-61.4 0,-33.9 50.93,-61.4 113.75,-61.4 62.83,0 113.75,27.5 113.75,61.4"
         style="fill:#f57c58;fill-opacity:1;fill-rule:nonzero;stroke:none"
         transform="matrix(0.13333333,0,0,-0.13333333,0,2829.3333)" />
      <path
         id="path16"
         d="m 8107.58,13017.9 c -62.83,0 -113.75,-27.5 -113.75,-61.4 0,-33.9 50.92,-61.4 113.75,-61.4 62.82,0 113.75,27.5 113.75,61.4 0,33.9 -50.93,61.4 -113.75,61.4"
         style="fill:#f57c58;fill-opacity:1;fill-rule:nonzero;stroke:none"
         transform="matrix(0.13333333,0,0,-0.13333333,0,2829.3333)" />
      <path
         id="path17"
         d="m 8487.55,13017.9 c -62.82,0 -113.75,-27.5 -113.75,-61.4 0,-33.9 50.93,-61.4 113.75,-61.4 62.83,0 113.75,27.5 113.75,61.4 0,33.9 -50.92,61.4 -113.75,61.4"
         style="fill:#f57c58;fill-opacity:1;fill-rule:nonzero;stroke:none"
         transform="matrix(0.13333333,0,0,-0.13333333,0,2829.3333)" />
      <path
         id="path18"
         d="m 9238.2,14487.7 c 812,-240.2 2060.2,-15.5 2060.2,-15.5 -160.4,-549.2 -50.9,-873.6 104.7,-1062.8 42.7,31.7 89,60.4 138.7,85.2 387,193.4 831.4,88.7 992.5,-233.8 161.2,-322.5 -21.9,-740.7 -408.9,-934 -232,-115.9 -484.1,-124.1 -683.9,-43.1 l 163.4,-1385.2 c 165.8,-96.1 364.3,-157.3 595.6,-175.2 862.3,-67 1850,487.6 1916.9,1349.8 66.9,862.3 -360.4,1620.3 -1222.7,1687.2 -269.3,20.9 -549.1,-28.1 -808.8,-131.6 404.8,830.8 279.7,1801.7 -663.6,2149.7 0.5,5.2 1.3,10.2 1.7,15.3 67,862.3 -360.4,1620.3 -1222.6,1687.2 -862.3,66.9 -1832.95,-582.6 -1899.86,-1444.9 -32.56,-419.5 48.19,-791.6 238.66,-1071.1 157.74,-231.4 390.95,-399.1 698,-477.2"
         style="fill:#21224e;fill-opacity:1;fill-rule:nonzero;stroke:none"
         transform="matrix(0.13333333,0,0,-0.13333333,0,2829.3333)" />
    </g>
  </g>
</svg>
