<?xml version="1.0" encoding="UTF-8" standalone="no"?>
<!-- Created with Inkscape (http://www.inkscape.org/) -->

<svg
   version="1.1"
   id="svg1"
   width="2829.3333"
   height="2829.3333"
   viewBox="0 0 2829.3333 2829.3333"
   sodipodi:docname="readhead.eps"
   xmlns:inkscape="http://www.inkscape.org/namespaces/inkscape"
   xmlns:sodipodi="http://sodipodi.sourceforge.net/DTD/sodipodi-0.dtd"
   xmlns="http://www.w3.org/2000/svg"
   xmlns:svg="http://www.w3.org/2000/svg">
  <defs
     id="defs1" />
  <sodipodi:namedview
     id="namedview1"
     pagecolor="#ffffff"
     bordercolor="#000000"
     borderopacity="0.25"
     inkscape:showpageshadow="2"
     inkscape:pageopacity="0.0"
     inkscape:pagecheckerboard="0"
     inkscape:deskcolor="#d1d1d1">
    <inkscape:page
       x="0"
       y="0"
       inkscape:label="1"
       id="page1"
       width="2829.3333"
       height="2829.3333"
       margin="0"
       bleed="0" />
  </sodipodi:namedview>
  <g
     id="g1"
     inkscape:groupmode="layer"
     inkscape:label="1">
    <g
       id="group-R5">
      <path
         id="path2"
         d="m 12567.6,9999.7 c 176.3,122.5 336.1,279.6 468.1,470.1 158.8,229 258.9,481.1 306.3,736.4 l 1.8,-0.8 c 0,0 28.2,225.7 405.6,392.3 47.4,15.3 94.1,33.3 140.5,53 9.3,3 17.5,6.3 27.1,9.2 l -2.6,0.3 c 254.6,112.4 490.9,289.3 684,527.8 615,759.7 558.4,1855 -126.4,2446.4 -146.5,126.5 -310.5,217.6 -482.8,278.6 l 0.2,2 c 0,0 -373.9,78.1 -303.7,818.8 l -0.9,0.5 c 26.9,510.1 -158.5,1012.3 -549.7,1350.1 -546.8,472.1 -1328.1,479 -1934.2,76.6 l -1.3,0.7 c 0,0 -5.9,-4.4 -14.7,-10.7 -8.2,-5.6 -16.5,-10.8 -24.6,-16.6 -121.2,-78.3 -507.3,-279.3 -866.4,63 l -1.2,-1.9 c -19.6,18.8 -37.9,38.6 -58.6,56.5 -684.99,591.3 -1738.84,454.9 -2353.89,-304.9 -239.05,-295.2 -375.32,-641.1 -414.04,-988.5 l -1.11,0.8 c -56.33,-420.6 -332.02,-530 -428.38,-555.6 -5.45,-1.1 -10.9,-2.9 -16.35,-4.1 -11.02,-2.4 -17.3,-3.3 -17.3,-3.3 l 0.73,-1 c -410.77,-94.4 -798.51,-345.9 -1069.88,-737.2 -556.54,-802.7 -413.94,-1885 318.4,-2417.3 121.89,-88.6 252.91,-154.5 388.35,-202.2 l -0.91,-1.7 c 0,0 494.19,-136.3 614.08,-947.8 1.38,-9.5 4.65,-18 6.7,-27.1 80.13,-388.3 289.24,-741.2 619.9,-981.6 136.11,-98.9 283.08,-171.2 435.54,-219.1 -2148.39,-1082.3 -2989.07,-3402 -2989.07,-3402 0,0 1547.51,-2852.3 5279.73,-2852.3 3732.2,0 5279.7,2730.9 5279.7,2730.9 0,0 -999.2,2632.3 -3318.7,3661.7"
         style="fill:#f6828e;fill-opacity:1;fill-rule:nonzero;stroke:none"
         transform="matrix(0.13333333,0,0,-0.13333333,0,2829.3333)" />
      <path
         id="path3"
         d="m 9469.38,12995.2 -3.11,11 c -206.3,-200.2 -563.46,-243.4 -882.12,-84.2 -387.01,193.3 -570.11,611.5 -408.97,934 161.14,322.5 605.49,427.2 992.5,233.9 80.95,-40.5 152.36,-91.2 214.18,-148.4 l 0.08,0.8 c 9.38,-6.1 1135.56,-736.7 831.06,996.9 0,0 1876.9,-1258.5 2652.8,-301 106,-167.5 196.3,-351.1 266.2,-549.2 18.6,-52.7 34.8,-105.5 49.9,-158.3 64.4,61.6 139.7,116.2 225.7,159.2 387,193.3 831.3,88.6 992.5,-233.9 161.1,-322.5 -22,-740.7 -409,-934 -247.5,-123.7 -518.1,-124.9 -723.4,-25.8 -91.8,-742.7 -518.8,-1369.4 -1177.9,-1601.9 -54.8,-19.3 -110.1,-35 -165.7,-48.1 l -2.3,-941.5 h -0.3 l -0.2,-73 c 225.8,-63 441.4,-141 646.3,-232 176.3,122.5 336.1,279.6 468.1,470.1 158.8,229 258.9,481.1 306.3,736.4 l 1.8,-0.7 c 0,0 28.2,225.6 405.6,392.2 47.4,15.3 94.1,33.3 140.5,53 9.3,3 17.5,6.3 27.1,9.2 l -2.6,0.3 c 254.6,112.4 490.9,289.3 684,527.8 615,759.7 558.4,1855 -126.4,2446.4 -146.5,126.5 -310.5,217.6 -482.8,278.6 l 0.2,2 c 0,0 -373.9,78.1 -303.7,818.8 l -0.9,0.5 c 26.9,510.1 -158.5,1012.3 -549.7,1350.1 -546.8,472.1 -1328.1,479 -1934.2,76.6 l -1.3,0.7 c 0,0 -5.9,-4.4 -14.7,-10.7 -8.2,-5.6 -16.5,-10.8 -24.6,-16.6 -121.2,-78.3 -507.3,-279.3 -866.4,63 l -1.2,-1.9 c -19.6,18.8 -37.9,38.6 -58.6,56.5 -684.99,591.3 -1738.84,454.9 -2353.89,-304.9 -239.05,-295.2 -375.32,-641.1 -414.04,-988.5 l -1.11,0.8 c -56.33,-420.6 -332.02,-530 -428.38,-555.6 -5.45,-1.1 -10.9,-2.9 -16.35,-4.1 -11.02,-2.4 -17.3,-3.3 -17.3,-3.3 l 0.73,-1 c -410.77,-94.4 -798.51,-345.9 -1069.87,-737.2 -556.55,-802.7 -413.95,-1885 318.38,-2417.3 121.89,-88.6 252.92,-154.5 388.36,-202.2 l -0.91,-1.7 c 0,0 494.19,-136.3 614.08,-947.7 1.38,-9.6 4.65,-18.1 6.7,-27.2 80.13,-388.3 289.24,-741.2 619.9,-981.6 136.11,-98.9 283.08,-171.2 435.54,-219.1 347.77,175.2 729.8,317.8 1148.11,413 l 5.33,2720.8"
         style="fill:#f14f40;fill-opacity:1;fill-rule:nonzero;stroke:none"
         transform="matrix(0.13333333,0,0,-0.13333333,0,2829.3333)" />
      <path
         id="path4"
         d="m 12567.6,9999.7 c -204.9,91 -420.5,169 -646.3,232 l -1.3,-688 c -0.4,-170.4 -550.9,-307.3 -1229.5,-305.6 -678.5,1.6 -1228.29,141.2 -1227.88,311.6 l 1.43,724.7 c -418.31,-95.2 -800.34,-237.8 -1148.11,-413 -2148.39,-1082.3 -2989.07,-3402 -2989.07,-3402 0,0 1547.51,-2852.3 5279.73,-2852.3 3732.2,0 5279.7,2730.9 5279.7,2730.9 0,0 -999.2,2632.3 -3318.7,3661.7"
         style="fill:#b0e5f0;fill-opacity:1;fill-rule:nonzero;stroke:none"
         transform="matrix(0.13333333,0,0,-0.13333333,0,2829.3333)" />
      <path
         id="path5"
         d="m 11209.5,11236.4 c -16.2,-60.7 -25.8,-124.1 -25.9,-189.9 -1,-408.6 329.3,-740.6 737.9,-741.8 h 0.3 l 2.3,941.5 c -236.3,-56 -478.2,-57.1 -714.6,-9.8"
         style="fill:#5b0e39;fill-opacity:1;fill-rule:nonzero;stroke:none"
         transform="matrix(0.13333333,0,0,-0.13333333,0,2829.3333)" />
      <path
         id="path6"
         d="m 11853,13080.6 c 55.3,-59.8 122.5,-125.7 58.3,-210.6 -47.5,-62.9 -105.2,-120.1 -157.1,-179.4 -57.2,-65.2 -114.4,-130.5 -171.6,-195.8 -52.7,-60.1 35.2,-148.7 88.2,-88.2 109.6,125 222.6,247.8 329,375.5 92.4,110.8 72.3,245 -21,346 -69,74.7 -138.1,149.4 -207.1,224.1 -60.9,65.9 -121.9,131.9 -182.8,197.8 -54.6,59.1 -142.6,-29.3 -88.2,-88.2 117.4,-127 234.9,-254.1 352.3,-381.2"
         style="fill:#5b0e39;fill-opacity:1;fill-rule:nonzero;stroke:none"
         transform="matrix(0.13333333,0,0,-0.13333333,0,2829.3333)" />
      <path
         id="path7"
         d="m 12177.3,13716 c 36.4,13.5 46.5,76.6 22.5,140.9 -23.9,64.4 -72.8,105.6 -109.1,92 -36.4,-13.5 -46.5,-76.6 -22.5,-140.9 23.9,-64.4 72.8,-105.6 109.1,-92"
         style="fill:#5b0e39;fill-opacity:1;fill-rule:nonzero;stroke:none"
         transform="matrix(0.13333333,0,0,-0.13333333,0,2829.3333)" />
      <path
         id="path8"
         d="m 10817.1,13690.6 c 36.4,13.5 46.5,76.6 22.6,141 -24,64.3 -72.8,105.5 -109.2,92 -36.3,-13.5 -46.4,-76.7 -22.5,-141 23.9,-64.3 72.8,-105.5 109.1,-92"
         style="fill:#5b0e39;fill-opacity:1;fill-rule:nonzero;stroke:none"
         transform="matrix(0.13333333,0,0,-0.13333333,0,2829.3333)" />
      <path
         id="path9"
         d="m 10922.3,12616.9 c -2.8,33.6 -26.6,62.4 -62.3,62.4 -31.6,0 -65.3,-28.6 -62.4,-62.4 10.6,-125.1 65.6,-244.3 161.9,-326.7 95.7,-81.9 219.4,-125.4 345.5,-116.6 33.6,2.4 62.4,27 62.4,62.4 0,31.9 -28.6,64.7 -62.4,62.3 -25.8,-1.8 -51.6,-1.3 -77.3,1.3 l -10.1,1.5 c -6.9,1.2 -13.8,2.6 -20.6,4.1 -12.6,2.9 -25,6.4 -37.3,10.4 -5.6,1.9 -11.2,3.9 -16.7,6 l -8.9,3.7 c -11.8,5.4 -23.4,11.1 -34.6,17.5 -10.2,5.8 -20.1,12 -29.7,18.7 l -11.5,8.2 -10.6,8.7 c -18.6,15.9 -35.1,33.5 -51,52.1 l -2.7,2.9 -1.9,3 c -4,5.6 -8,11.1 -11.7,16.9 -7.1,10.7 -13.6,21.7 -19.6,32.9 -2.8,5.3 -5.4,10.6 -8,15.9 l -4,8.9 c -5.1,12.4 -9.5,25 -13.2,37.8 -3.4,11.7 -6.3,23.5 -8.7,35.5 -1,5.1 -1.9,10.2 -2.7,15.3 l -1.9,17.3"
         style="fill:#5b0e39;fill-opacity:1;fill-rule:nonzero;stroke:none"
         transform="matrix(0.13333333,0,0,-0.13333333,0,2829.3333)" />
      <path
         id="path10"
         d="m 13338.1,13276.9 c 285.4,28 554.2,153.7 755.2,359.1 56.1,57.4 -32,145.7 -88.2,88.2 -176.7,-180.6 -415,-297.9 -667,-322.6 -33.5,-3.2 -62.4,-26.3 -62.4,-62.3 0,-31.2 28.7,-65.7 62.4,-62.4"
         style="fill:#5b0e39;fill-opacity:1;fill-rule:nonzero;stroke:none"
         transform="matrix(0.13333333,0,0,-0.13333333,0,2829.3333)" />
      <path
         id="path11"
         d="m 9237.18,13401.6 c -252.06,24.7 -490.28,142 -666.99,322.6 -56.22,57.5 -144.39,-30.7 -88.19,-88.2 201,-205.4 469.72,-331.1 755.18,-359.1 33.57,-3.3 62.36,31 62.36,62.4 0,36.4 -28.7,59 -62.36,62.3"
         style="fill:#5b0e39;fill-opacity:1;fill-rule:nonzero;stroke:none"
         transform="matrix(0.13333333,0,0,-0.13333333,0,2829.3333)" />
      <path
         id="path12"
         d="m 12465.2,9696.1 c 117.2,-251.4 -82.2,-516.7 -296.6,-632.2 -129.4,-69.7 -274.2,-106.6 -417.5,-135.5 -155.4,-31.4 -312.6,-56.1 -470,-75.2 -618.1,-75.1 -1284.71,-72.1 -1878.46,137.5 -273.38,96.5 -591.84,339.5 -492.79,670.7 23.05,77.1 -97.29,110 -120.27,33.2 -90.05,-301.2 112.14,-588.1 366.75,-730.2 146.43,-81.7 310.13,-129.5 472.37,-168.2 171.52,-40.9 346.02,-69.1 521.4,-87.1 364.4,-37.3 732.6,-26.9 1096.1,15.2 180.2,20.9 360.2,47.9 538.1,83.8 154.1,31.2 308.2,73.2 447.3,148.1 280.8,151.3 488,488.4 341.3,802.9 -33.9,72.7 -141.4,9.4 -107.7,-63"
         style="fill:#4e8397;fill-opacity:1;fill-rule:nonzero;stroke:none"
         transform="matrix(0.13333333,0,0,-0.13333333,0,2829.3333)" />
    </g>
  </g>
</svg>
